<?xml version="1.0" standalone="no"?><!DOCTYPE svg PUBLIC "-//W3C//DTD SVG 1.1//EN" "http://www.w3.org/Graphics/SVG/1.1/DTD/svg11.dtd"><svg t="1532182367294" class="icon" style="" viewBox="0 0 1024 1024" version="1.1" xmlns="http://www.w3.org/2000/svg" p-id="2074" xmlns:xlink="http://www.w3.org/1999/xlink" width="200" height="200"><defs><style type="text/css"></style></defs><path d="M264.50351563 568.72109375c-10.62333984 8.55-22.01044922 21.03222657-25.31689454 36.9-4.50000001 21.67910156-0.93955078 48.81533203 19.97578125 70.10244141 25.33710938 25.80644532 63.84111328 32.86933594 80.47265625 34.08310546 45.17578125 3.26689453 93.32578126-19.13554687 129.61845704-44.68710937 14.22421875-10.03710938 38.58310547-30.18955078 61.86621093-61.27822267-52.18066405-26.94111328-117.31376953-56.73955078-186.94599609-53.82421875-35.56933594 1.48710937-61.04355469 8.86289062-79.67021484 18.70400392z m661.69248046 119.13134766C949.22333984 633.79355468 962 574.37421875 962 512 962 263.87421876 760.14599609 62 512 62 263.85400391 62 62 263.87421876 62 512c0 248.14599609 201.85400391 450 450 450 149.75244141 0 282.56044922-73.58466797 364.42177734-186.43710938-77.34111328-38.44511719-204.80888672-101.71933594-283.32421875-140.00888671-37.46777344 42.71132813-92.85644531 85.52021484-155.42578125 104.1459961-39.30644531 11.68066406-74.73955078 16.14111328-111.79599609 8.56933593-36.68466797-7.51289063-63.70400391-24.69111328-79.45400391-41.90888672-8.02177734-8.78466797-17.23710937-19.95644531-23.90888671-33.24023438a62.62207031 62.62207031 0 0 0 1.05644531 2.67978516s-3.83466797-6.61289063-6.76933594-17.13867186a75.58066405 75.58066405 0 0 1-2.93554687-15.94599611 82.19267578 82.19267578 0 0 1-0.17578125-11.46533203c-0.33222656-6.76933594-0.0580078-13.87177734 1.46777343-21.14999999 3.67822266-17.78466797 11.26933594-38.50488281 30.91289063-57.73710938 43.12177734-42.22177734 100.87822266-44.49111328 130.79355469-44.31445312 44.31533203 0.25400391 121.32421875 19.64355469 186.16289062 42.57333983 17.96132813-38.25 29.48466797-79.16132812 36.92021484-106.43554687H330.33710937v-29.1515625h138.4435547v-58.30400391H301.18466797v-29.1524414h167.59599608v-58.28466797c0-8.00244141 1.58466797-14.57578125 14.57578126-14.57578125h65.58310547v72.86044922h182.19111328v29.1524414H548.93955078v58.30400391h145.74023438s-14.63378906 81.58710938-60.3975586 162c101.56376953 36.27421876 244.44843749 92.15244141 291.91376953 110.81777344z" fill="#1296db" p-id="2075"></path></svg>