<svg id="图层_1" data-name="图层 1" xmlns="http://www.w3.org/2000/svg" viewBox="0 0 25.51181 25.51181">
  <defs>
    <style>
      .cls-1 {
        fill: #ff6908;
      }

      .cls-2 {
        fill: #fff;
      }
    </style>
  </defs>
  <title>推荐</title>
  <path class="cls-1" d="M12.75591,24.9159a8.41217,8.41217,0,0,0-8.5984-3.5615,8.4122,8.4122,0,0,0-3.5616-8.59849,8.41206,8.41206,0,0,0,3.5616-8.5984,8.41206,8.41206,0,0,0,8.5984-3.5616,8.41212,8.41212,0,0,0,8.59839,3.5616,8.4124,8.4124,0,0,0,3.5616,8.5984,8.41255,8.41255,0,0,0-3.5616,8.59849A8.41223,8.41223,0,0,0,12.75591,24.9159Z"/>
  <path class="cls-2" d="M8.038,11.67491v4.7223a.80171.80171,0,0,0,.785.8178h.7067v-6.3502L8.823,10.857a.7691.7691,0,0,0-.555.2396.83491.83491,0,0,0-.23.5783Zm9.2449-1.676-3.121.0205a5.52877,5.52877,0,0,0,.2207-1.4351c0-.9538-.8021-1.8878-1.6032-1.7666-.7063.1069-.7839.7429-.7839,1.5397v.7195a1.83751,1.83751,0,0,1-1.6066,1.7968l-.1133-.0011V17.215h6.148a1.21132,1.21132,0,0,0,1.1763-1.0148l.8592-4.7223a1.28559,1.28559,0,0,0-.2544-1.0276,1.17825,1.17825,0,0,0-.9218-.4514Zm0,0"/>
</svg>
