<?xml version="1.0" encoding="UTF-8"?><!DOCTYPE svg PUBLIC "-//W3C//DTD SVG 1.1//EN" "http://www.w3.org/Graphics/SVG/1.1/DTD/svg11.dtd"><svg xmlns="http://www.w3.org/2000/svg"><defs>
        <linearGradient x1="50%" y1="0%" x2="50%" y2="100%" id="a">
            <stop stop-color="#2F8BE6" offset="0%"/>
            <stop stop-color="#2B82D7" offset="97.714%"/>
        </linearGradient>
    
        <linearGradient x1="50%" y1="0%" x2="50%" y2="100%" id="a">
            <stop stop-color="#2F8BE6" offset="0%"/>
            <stop stop-color="#2B82D7" offset="97.714%"/>
        </linearGradient>
    </defs><symbol id="icon-v6-all" viewBox="0 0 16 16">
    <title>
        all
    </title>
    <path d="M7.624 8.553c.227.113.316.147.376.147a.392.392 0 0 0 .124-.03 2.38 2.38 0 0 0 .232-.107L14.112 5 8.376 1.447C8.15 1.334 8.06 1.3 8 1.3s-.15.034-.337.125L1.888 5l5.736 3.553zm1.2.894a3.306 3.306 0 0 1-.348.159c-.162.06-.316.094-.476.094-.274 0-.45-.066-.824-.253l-.04-.022L.912 5.571a.584.584 0 0 1-.346-.297A.592.592 0 0 1 .5 5c0-.083.015-.173.065-.274a.584.584 0 0 1 .346-.297L7.176.553C7.55.366 7.726.3 8 .3c.274 0 .45.066.863.275l6.226 3.854a.584.584 0 0 1 .346.297c.05.101.065.19.065.274a.592.592 0 0 1-.065.274.584.584 0 0 1-.346.297L8.824 9.447zM.565 7.727a.584.584 0 0 1 .344-.298l.726-.453.53.848-.28.174 5.778 3.577.09.071c-.062-.063-.016-.052.049-.05.053.003.1.004.198.004a.864.864 0 0 0 .179-.035c.111-.028.19-.046.263-.055l5.672-3.512-.279-.174.53-.848.726.453c.152.05.274.157.344.297.05.101.065.19.065.274a.592.592 0 0 1-.065.274.584.584 0 0 1-.346.297L8.742 12.5H8.6a.864.864 0 0 0-.179.035A1.54 1.54 0 0 1 8 12.6c-.113 0-.171 0-.246-.004-.287-.014-.486-.053-.655-.194L.911 8.57a.584.584 0 0 1-.346-.297A.592.592 0 0 1 .5 8c0-.083.015-.173.065-.274zm0 3a.584.584 0 0 1 .344-.298l.726-.453.53.848-.28.174 5.778 3.577.09.071c-.062-.063-.016-.052.049-.05.053.003.1.004.198.004a.864.864 0 0 0 .179-.035c.111-.028.19-.046.263-.055l5.672-3.512-.279-.174.53-.848.726.453c.152.05.274.157.344.297.05.101.065.19.065.274a.592.592 0 0 1-.065.274.584.584 0 0 1-.346.297L8.742 15.5H8.6a.864.864 0 0 0-.179.035A1.54 1.54 0 0 1 8 15.6c-.113 0-.171 0-.246-.004-.287-.014-.486-.053-.655-.194L.911 11.57a.584.584 0 0 1-.346-.297A.592.592 0 0 1 .5 11c0-.083.015-.173.065-.274z" fill-rule="nonzero"/>
</symbol><symbol id="icon-v6-arrow-right" viewBox="0 0 16 10">
    <title>
        Arrow Right #2 Icon
    </title>
    <path d="M12.753 6l-2.48 2.294a.991.991 0 0 0 0 1.414 1.022 1.022 0 0 0 1.432 0l3.85-3.647c.287-.284.445-.659.445-1.06 0-.402-.158-.779-.444-1.06L11.705.292a1.022 1.022 0 0 0-1.433 0 .991.991 0 0 0 0 1.414L12.752 4H1a1 1 0 0 0 0 2h11.753z" fill-rule="evenodd"/>
</symbol><symbol id="icon-v6-arrows" viewBox="0 0 16 16">
    <title>
        v6-arrows
    </title>
    <path d="M15 6.027a1 1 0 0 1-1-1v-1.6l-3.29 3.292a1.024 1.024 0 0 1-1.436 0 .994.994 0 0 1 0-1.417l3.281-3.284h-1.57a1.005 1.005 0 0 1 0-2.009h3.016A2 2 0 0 1 16 2v3.02a1 1 0 0 1-1 1.007zm-9.7.676L2.016 3.437V5A1.008 1.008 0 1 1 0 5V2a2 2 0 0 1 2-2h3.02a1 1 0 1 1 0 2h-1.6l3.292 3.275a1.015 1.015 0 0 1 0 1.429A1 1 0 0 1 5.293 6.7l.007.003zM1 9.973a1 1 0 0 1 1 1v1.6l3.275-3.292a1.015 1.015 0 0 1 1.429 0 1 1 0 0 1 0 1.417l-3.266 3.284H5A1.009 1.009 0 0 1 5 16H2a2 2 0 0 1-2-2v-3.02a1 1 0 0 1 1-1.007zm9.707-.706l3.284 3.281v-1.57a1.005 1.005 0 0 1 2.009 0v3.016A2 2 0 0 1 14 16h-3.02a1.005 1.005 0 0 1 0-2.009h1.6l-3.292-3.29a1.024 1.024 0 0 1 0-1.436.994.994 0 0 1 1.419.002z" fill-rule="nonzero"/>
</symbol><symbol id="icon-v6-bag" viewBox="0 0 10 10">
    <title>
        Shape
    </title>
    <path d="M9.97 3.861L8.959 8.89A1.399 1.399 0 0 1 7.62 10H2.38a1.399 1.399 0 0 1-1.339-1.11L.03 3.861A1.109 1.109 0 0 1 1.127 2.5h1.378A2.499 2.499 0 0 1 6.768.733c.469.469.732 1.104.731 1.767h1.373A1.106 1.106 0 0 1 9.97 3.861zM2.245 8.64a.174.174 0 0 0 .137.111H7.62a.175.175 0 0 0 .136-.111l.231-1.14H2.016l.228 1.139.001.001zm2.757-7.39c-.69 0-1.249.56-1.249 1.25H6.25c0-.69-.559-1.25-1.248-1.25zM1.26 3.75l.503 2.5H8.24l.506-2.504h-7.49l.004.004z" fill-rule="evenodd"/>
</symbol><symbol id="icon-v6-bubble" viewBox="0 0 11 11">
    <title>
        Shape
    </title>
    <path d="M4.996 9.749a3.753 3.753 0 1 1 3.231-1.84.626.626 0 0 0-.062.492l.313 1.065-1.074-.307a.626.626 0 0 0-.492.063 3.734 3.734 0 0 1-1.916.527zm4.82 1.067a.626.626 0 0 0 .16-.615c-.062-.219-.542-1.892-.541-1.898 1.121-2.141.384-4.134.152-4.647C9.354 3.142 8.39 1.326 6.029 1 3.667.675 2.73 1.438 1.464 2.465a5 5 0 0 0 5.839 7.972c.006 0 1.902.539 1.902.539.216.062.451 0 .612-.16z" fill-rule="evenodd"/>
</symbol><symbol id="icon-v6-burger" viewBox="0 0 16 14">
    <title>
        hammer
    </title>
    <path d="M0 7c0-.552.445-1 1-1h14c.552 0 1 .444 1 1 0 .552-.445 1-1 1H1c-.552 0-1-.444-1-1zm0-6c0-.552.445-1 1-1h14c.552 0 1 .444 1 1 0 .552-.445 1-1 1H1c-.552 0-1-.444-1-1zm0 12c0-.552.445-1 1-1h14c.552 0 1 .444 1 1 0 .552-.445 1-1 1H1c-.552 0-1-.444-1-1z" fill-rule="nonzero"/>
</symbol><symbol id="icon-v6-calendar" viewBox="0 0 16 16">
    <title>
        v6-calendar
    </title>
    <path d="M13.993 16H2.007A2.009 2.009 0 0 1 0 14V4a2 2 0 0 1 2.007-2H4V1a1 1 0 0 1 2 0v1h4V1a1 1 0 0 1 2 0v1h1.993A2.009 2.009 0 0 1 16 4v10a2 2 0 0 1-2.007 2zM14 4h-2v1a1 1 0 0 1-2 0V4H6v1a1 1 0 0 1-2 0V4H2.007A.008.008 0 0 0 2 4v10h11.993A.008.008 0 0 0 14 14V4zm-3 8a1 1 0 1 1 0-2 1 1 0 0 1 0 2zm0-3a1 1 0 1 1 0-2 1 1 0 0 1 0 2zm-3 3a1 1 0 1 1 0-2 1 1 0 0 1 0 2zm0-3a1 1 0 1 1 0-2 1 1 0 0 1 0 2zm-3 3a1 1 0 1 1 0-2 1 1 0 0 1 0 2zm0-3a1 1 0 1 1 0-2 1 1 0 0 1 0 2z" fill-rule="nonzero"/>
</symbol><symbol id="icon-v6-camera" viewBox="0 0 16 16">
    <title>
        v6-camera
    </title>
    <path d="M2.007 16A2 2 0 0 1 0 14V4a2 2 0 0 1 1.991-2h1.595L5.122.463C5.43.173 5.835.009 6.258 0h3.484c.423.009.828.174 1.136.463L12.414 2h1.595A2 2 0 0 1 16 4v10.01A2 2 0 0 1 13.993 16H2.007zM12.258 4a1.664 1.664 0 0 1-1.136-.463L9.586 2H6.414L4.878 3.537A1.664 1.664 0 0 1 3.742 4H2v10h12V4h-1.742zM8 5a4 4 0 1 1 0 8 4 4 0 0 1 0-8zm0 6a2 2 0 1 0 0-4 2 2 0 0 0 0 4z" fill-rule="nonzero"/>
</symbol><symbol id="icon-v6-cart" viewBox="0 0 14 14">
    <title>
        Shape
    </title>
    <path d="M4.083 12.542c0 .81.648 1.458 1.459 1.458C6.352 14 7 13.352 7 12.542c0-.81-.648-1.459-1.458-1.459-.81 0-1.459.648-1.459 1.459zm4.667 0c0 .81.648 1.458 1.458 1.458.81 0 1.459-.648 1.459-1.458 0-.81-.648-1.459-1.459-1.459-.81 0-1.458.648-1.458 1.459zm5.234-9.56a.226.226 0 0 0-.049-.244.31.31 0 0 0-.227-.113H3.775L3.29.665A.885.885 0 0 0 2.431 0H.875A.871.871 0 0 0 0 .875c0 .486.389.875.875.875h.875l1.782 7.21c.089.393.44.67.843.665h6.984c.4 0 .748-.275.842-.664l1.783-5.98v.001z" fill-rule="evenodd"/>
</symbol><symbol id="icon-v6-clock" viewBox="0 0 16 16">
    <title>
        v6-clock
    </title>
    <path d="M8 16A8 8 0 1 1 8 0a8 8 0 0 1 0 16zM8 2a6 6 0 1 0 0 12A6 6 0 0 0 8 2zm4 7H8a1 1 0 0 1-1-.991V3.991a1 1 0 0 1 2 0V7h3a1 1 0 0 1 0 2z" fill-rule="nonzero"/>
</symbol><symbol id="icon-v6-close" viewBox="0 0 12 12">
    <title>
        close
    </title>
    <path d="M6 4.586L1.758.344a.998.998 0 0 0-1.415 0 .998.998 0 0 0 0 1.414L4.587 6 .344 10.242a.998.998 0 0 0 0 1.415.998.998 0 0 0 1.414 0L6 7.413l4.242 4.242a.998.998 0 0 0 1.415 0 .998.998 0 0 0 0-1.414L7.413 6l4.242-4.242a.998.998 0 0 0 0-1.415.998.998 0 0 0-1.414 0L6 4.587z" fill-rule="nonzero"/>
</symbol><symbol id="icon-v6-corners" viewBox="0 0 58 58">
    <title>
        Combined Shape
    </title>
    <path d="M57.5 58H54v-1h3v-3h1v4h-.5zM58 .5V0h-4v1h3v3h1V.5zm-58 57v.5h4v-1H1v-3H0v3.5zM.5 0H4v1H1v3H0V0h.5z" fill-rule="evenodd"/>
</symbol><symbol id="icon-v6-dots" viewBox="0 0 10 2">
    <g fill-rule="evenodd">
        <circle cx="1" cy="1" r="1"/>
        <circle cx="5" cy="1" r="1"/>
        <circle cx="9" cy="1" r="1"/>
    </g>
</symbol><symbol id="icon-v6-download" viewBox="0 0 16 12">
    <title>
        download
    </title>
    <path d="M14.367 7.385H16V12H0V7.385h1.633v3.077h12.734V7.385zm-1.581-2.722L8 9.173l-4.786-4.51 1.153-1.086L7.184 6.23V0h1.632v6.23l2.817-2.653 1.153 1.086z" fill-rule="evenodd"/>
</symbol><symbol id="icon-v6-dribbble" viewBox="0 0 18 18">
    <title>
        dribbble
    </title>
    <path d="M9 0a9 9 0 1 0 0 18A9 9 0 0 0 9 0zm5.71 4.146a7.459 7.459 0 0 1 1.767 4.355c-1.62-.086-3.56-.084-5.12.063-.19-.49-.397-.976-.617-1.454 1.799-.778 3.183-1.8 3.97-2.964zM9 1.501c1.819 0 3.486.648 4.785 1.726-.816 1.032-2.092 1.928-3.687 2.605-.873-1.61-1.874-2.999-2.942-4.094A7.478 7.478 0 0 1 9 1.501zm-3.393.817c1.083 1.076 2.1 2.453 2.99 4.057-1.694.516-3.635.813-5.704.813-.391 0-.776-.014-1.158-.036a7.515 7.515 0 0 1 3.872-4.834zM1.513 8.642c.426.019.858.026 1.296.022 2.36-.03 4.562-.397 6.45-1.003.176.371.345.751.506 1.14-.258.06-.486.126-.67.203-2.584 1.082-4.617 2.832-5.72 4.946A7.464 7.464 0 0 1 1.5 9c0-.12.008-.239.013-.358zM9 16.5a7.456 7.456 0 0 1-4.596-1.581c.998-1.977 2.779-3.612 5.026-4.63.212-.098.493-.178.815-.248a26.824 26.824 0 0 1 1.41 5.968A7.443 7.443 0 0 1 9 16.5zm4.053-1.195a27.038 27.038 0 0 0-.699-3.698c-.16-.609-.343-1.2-.537-1.778 1.47-.12 3.235-.102 4.635 0a7.499 7.499 0 0 1-3.399 5.476z" fill-rule="evenodd"/>
</symbol><symbol id="icon-v6-enter-right" viewBox="0 0 18 18">
    <title>
        Enter Right Icon
    </title>
    <path d="M15.005 15C15.003 15 15 3 15 3c0 .004-5 0-5 0a1 1 0 1 1 0-2h5.005C16.1 1 17 1.899 17 3v12c0 1.106-.891 2-1.995 2H10a1 1 0 1 1 0-2h5.005zM7.752 9.998H2.001a1 1 0 1 1 0-2h5.75L5.27 5.708a.99.99 0 0 1 0-1.414 1.022 1.022 0 0 1 1.433 0l3.852 3.647c.286.282.444.659.444 1.06s-.158.776-.444 1.06l-3.852 3.647c-.396.39-1.037.39-1.434 0a.99.99 0 0 1 0-1.414l2.482-2.295z" stroke-width=".5" fill-rule="nonzero"/>
</symbol><symbol id="icon-v6-facebook-circle" viewBox="0 0 24 24">
    <title>
        v6-facebook-circle
    </title>
    
    <path d="M24 12c0 6.627-5.373 12-12 12S0 18.627 0 12 5.373 0 12 0s12 5.373 12 12zm-11.278 0h1.294l.172-1.617h-1.466l.002-.808c0-.422.04-.648.646-.648h.809V7.311h-1.295c-1.555 0-2.103.784-2.103 2.102v.97h-.969V12h.97v4.69h1.94V12z" fill-rule="nonzero"/>
</symbol><symbol id="icon-v6-feed" viewBox="0 0 16 14">
    <title>
        v6-feed
    </title>
    <path d="M11 14a1 1 0 0 0 0-2H1a1 1 0 0 0 0 2h10zM1 10h14a1 1 0 0 0 0-2H1a1 1 0 0 0 0 2zm12-4a1 1 0 0 0 0-2H1a1 1 0 0 0 0 2h12zM1 2h14a1 1 0 0 0 0-2H1a1 1 0 0 0 0 2z" fill-rule="nonzero"/>
</symbol><symbol id="icon-v6-fonts" viewBox="0 0 16 16">
    <title>
        fonts
    </title>
    <path d="M15 1v2H9v10h3v2H4v-2h3V3H1V1h14zm1-1H0v6h1V4h5v8H3v4h10v-4h-3V4h5v2h1V0z" fill-rule="nonzero"/>
</symbol><symbol id="icon-v6-for-sketch" viewBox="0 0 16 16">
    <title>
        for-sketch
    </title>
    <path d="M12 0l.9 1.1.9 1.1L16 5 8 16l-2-2.8-.8-1.1-.9-1.2L0 5l4-5h8zm-.5 1h-7L1.3 5l3.8 5.3.9 1.2.8 1.1L8 14.3 14.7 5 13 2.8l-.9-1-.6-.8zM13 4l-1 1H4L3 4h10z" fill-rule="nonzero"/>
</symbol><symbol id="icon-v6-icon-sets" viewBox="0 0 18 16">
    <title>
        icon-sets
    </title>
    <path d="M8.874 2.942l-.948.316a4.535 4.535 0 0 0-.78-1.404C6.555 1.262 5.89 1 5 1c-.8 0-1.49.293-2.146.854a3.001 3.001 0 0 0 0 4.292c.292.293.764.563 1.332.79l-.372.928c-.682-.273-1.26-.603-1.668-1.01C.551 5.258.551 2.742 2.175 1.12 3.03.387 3.943 0 5 0c1.149 0 2.07.363 2.89 1.188.46.575.774 1.124.984 1.754zm5.212 4.922l-.372-.928c.568-.227 1.04-.497 1.332-.79 1.205-1.204 1.205-3.088.029-4.266C14.39 1.293 13.7 1 12.9 1c-.89 0-1.555.262-2.11.812-.39.488-.646.936-.816 1.446l-.948-.316c.21-.63.524-1.18 1.02-1.796C10.83.363 11.751 0 12.9 0c1.057 0 1.97.387 2.854 1.146a4.001 4.001 0 0 1 0 5.708c-.408.407-.986.737-1.668 1.01zm-4.96 5.194l.948-.316c.23.69.399.996.78 1.304.591.592 1.256.854 2.146.854.8 0 1.49-.293 2.146-.854a3.001 3.001 0 0 0 0-4.292c-.292-.293-.764-.563-1.332-.79l.372-.928c.682.273 1.26.603 1.668 1.01 1.595 1.596 1.595 4.112-.029 5.734-.855.733-1.768 1.12-2.825 1.12-1.149 0-2.07-.363-2.812-1.11-.527-.42-.777-.875-1.062-1.732zM3.942 8.126l.316.948c-.51.17-.958.426-1.404.78a3.001 3.001 0 0 0 0 4.292C3.445 14.738 4.11 15 5 15c.8 0 1.49-.293 2.146-.854.293-.292.563-.764.79-1.332l.928.372c-.273.682-.603 1.26-1.039 1.694C6.97 15.613 6.057 16 5 16c-1.149 0-2.07-.363-2.854-1.146-1.595-1.596-1.595-4.112.042-5.744.575-.46 1.124-.774 1.754-.984zM9 4c1 0 2 .4 2.8 1.1 1.6 1.6 1.6 4.1 0 5.7C11 11.6 10 12 9 12c-1 0-2-.4-2.8-1.1-1.6-1.6-1.6-4.1 0-5.7C7 4.4 8 4 9 4zm0 1c-.8 0-1.6.3-2.1.9C5.7 7 5.7 9 6.9 10.1c.5.6 1.3.9 2.1.9s1.6-.3 2.1-.9c.6-.5.9-1.3.9-2.1s-.3-1.6-.9-2.1C10.6 5.3 9.8 5 9 5z" fill-rule="nonzero"/>
</symbol><symbol id="icon-v6-image" viewBox="0 0 16 16">
    <title>
        v6-image
    </title>
    <path d="M14 16H2a2 2 0 0 1-2-2V2a2 2 0 0 1 2-2h12a2 2 0 0 1 2 2v12a2 2 0 0 1-2 2zm0-3.952l-3.023-2.7L6.687 14H14v-1.952zM2 2v12h1.975l6.135-6.648a1.09 1.09 0 0 1 1.528-.085L14 9.375V2H2zm4 6a2 2 0 1 1 0-4 2 2 0 0 1 0 4z" fill-rule="nonzero"/>
</symbol><symbol id="icon-v6-instagram" viewBox="0 0 18 18">
    <title>
        Combined Shape
    </title>
    <path d="M2 7.003v3.994A4.997 4.997 0 0 0 7.003 16h3.994A4.997 4.997 0 0 0 16 10.997V7.003A4.997 4.997 0 0 0 10.997 2H7.003A4.997 4.997 0 0 0 2 7.003zm-2 0A6.997 6.997 0 0 1 7.003 0h3.994A6.997 6.997 0 0 1 18 7.003v3.994A6.997 6.997 0 0 1 10.997 18H7.003A6.997 6.997 0 0 1 0 10.997V7.003zM9 12a3 3 0 1 0 0-6 3 3 0 0 0 0 6zm0-2a1 1 0 1 1 0-2 1 1 0 0 1 0 2zm4-4a1 1 0 1 0 0-2 1 1 0 0 0 0 2z" fill-rule="nonzero"/>
</symbol><symbol id="icon-v6-license-basic" viewBox="0 0 20 22">
    <title>
        Shape
    </title>
    <path d="M2.235 5.214C1.589 5.58 1 6.59 1 7.332v7.336c0 .748.583 1.748 1.235 2.117l6.517 3.695c.653.37 1.843.37 2.496 0l6.517-3.694C18.411 16.42 19 15.41 19 14.668V7.332c0-.748-.583-1.748-1.235-2.118L11.248 1.52c-.653-.37-1.842-.37-2.497 0L2.235 5.214zM8.258.65c.96-.544 2.525-.544 3.484 0l6.517 3.694C19.223 4.891 20 6.224 20 7.332v7.336c0 1.102-.782 2.444-1.741 2.988L11.74 21.35c-.96.544-2.524.544-3.483 0l-6.516-3.695C.777 17.11 0 15.777 0 14.668V7.332C0 6.23.782 4.888 1.741 4.344L8.258.65z" fill-rule="nonzero"/>
</symbol><symbol id="icon-v6-license-team" viewBox="0 0 23 22">
    <title>
        team-icon
    </title>
    <path d="M7.364 3.043c-.166.094-.364.433-.364.624v3.666c0 .195.195.529.365.625l3.258 1.847c.173.098.58.098.754 0l3.259-1.847c.166-.094.364-.433.364-.624V3.667c0-.195-.195-.529-.365-.625l-3.258-1.847c-.173-.098-.58-.098-.755 0L7.364 3.043zM10.13.325c.48-.272 1.263-.272 1.742 0l3.258 1.847c.482.274.871.94.871 1.495v3.667c0 .551-.392 1.222-.871 1.494l-3.259 1.847c-.48.272-1.262.272-1.74 0L6.87 8.828C6.39 8.554 6 7.888 6 7.333V3.667c0-.551.392-1.222.871-1.494L10.13.325zM1.364 14.042c-.166.094-.364.433-.364.624v3.667c0 .195.195.529.365.625l3.258 1.847c.173.098.58.098.754 0l3.259-1.847c.166-.094.364-.433.364-.624v-3.667c0-.195-.195-.529-.365-.625l-3.258-1.847c-.173-.098-.58-.098-.755 0l-3.258 1.847zm2.765-2.717c.48-.272 1.263-.272 1.742 0l3.258 1.847c.482.274.871.94.871 1.495v3.667c0 .551-.392 1.222-.871 1.494L5.87 21.675c-.48.272-1.262.272-1.74 0L.87 19.828C.39 19.554 0 18.888 0 18.333v-3.667c0-.551.392-1.222.871-1.494l3.258-1.847zm10.235 2.717c-.166.094-.364.433-.364.624v3.667c0 .195.195.529.365.625l3.258 1.847c.173.098.58.098.754 0l3.259-1.847c.166-.094.364-.433.364-.624v-3.667c0-.195-.195-.529-.365-.625l-3.258-1.847c-.173-.098-.58-.098-.755 0l-3.258 1.847zm2.765-2.717c.48-.272 1.263-.272 1.742 0l3.258 1.847c.482.274.871.94.871 1.495v3.667c0 .551-.392 1.222-.871 1.494l-3.259 1.847c-.48.272-1.262.272-1.74 0l-3.259-1.847c-.482-.274-.871-.94-.871-1.495v-3.667c0-.551.392-1.222.871-1.494l3.258-1.847z" fill-rule="nonzero"/>
</symbol><symbol id="icon-v6-like" viewBox="0 0 10 10">
    <title>
        Shape
    </title>
    <path d="M9.039 6.034c-.38.576-.798 1.121-1.25 1.633-.438.5-.898.985-1.361 1.436-.28.272-.5.474-.632.59a1.19 1.19 0 0 1-1.595 0 23.657 23.657 0 0 1-1.995-2.026A14.492 14.492 0 0 1 .96 6.038a5.015 5.015 0 0 1-.958-2.676 3.353 3.353 0 0 1 .9-2.424c1.12-1.168 2.884-1.254 4.1-.2 1.214-1.056 2.98-.97 4.098.2.603.636.928 1.512.898 2.415a4.992 4.992 0 0 1-.96 2.681h.001zm-.823-4.146a1.752 1.752 0 0 0-2.571 0l-.646.681-.646-.681a1.76 1.76 0 0 0-2.574 0c-.363.38-.556.91-.531 1.452-.024 1.989 3.75 5.325 3.75 5.325S8.773 5.332 8.75 3.34a1.971 1.971 0 0 0-.533-1.451l-.001-.001z" fill-rule="nonzero"/>
</symbol><symbol id="icon-v6-media" viewBox="0 0 16 18">
    <title>
        media icon
    </title>
    <path d="M3 14.998L13 9 3 3.002v11.996zm-2 0V3.002C1 1.448 2.696.488 4.029 1.288l10 5.998c1.295.776 1.295 2.652 0 3.428l-10 5.998c-1.333.8-3.029-.16-3.029-1.714z" stroke-width=".5" fill-rule="nonzero"/>
</symbol><symbol id="icon-v6-minus-circle" viewBox="0 0 9 9">
    <title>
        Combined Shape
    </title>
    <path d="M4.5 9a4.5 4.5 0 1 1 0-9 4.5 4.5 0 0 1 0 9zM3 4h3v1H3V4zm1.5 4a3.5 3.5 0 1 0 0-7 3.5 3.5 0 0 0 0 7z" fill-rule="nonzero"/>
</symbol><symbol id="icon-v6-mockups" viewBox="0 0 16 16">
    <title>
        mockups
    </title>
    <path d="M4 16a.5.5 0 1 1 0-1h8a.5.5 0 1 1 0 1H4zM15 0c.6 0 1 .4 1 1v11c0 .6-.4 1-1 1H1c-.6 0-1-.5-1-1V1c0-.6.4-1 1-1h14zm0 1H1v11h14V1zM8 8c.6 0 1 .4 1 1s-.4 1-1 1-1-.4-1-1 .4-1 1-1z" fill-rule="nonzero"/>
</symbol><symbol id="icon-v6-notification" viewBox="0 0 14 14">
    <title>
        Shape
    </title>
    <path d="M13.955 11.65a.875.875 0 0 1-.835.6H8.747a1.75 1.75 0 1 1-3.499 0H.875a.875.875 0 0 1-.525-1.575 3.49 3.49 0 0 0 1.405-2.8V5.25a5.249 5.249 0 1 1 10.496 0v2.625a3.481 3.481 0 0 0 1.4 2.8c.3.226.423.619.304.976zm-3.31-3.77V5.253a3.647 3.647 0 0 0-7.287 0V7.88c0 .925-.252 1.833-.729 2.625h8.747a5.089 5.089 0 0 1-.73-2.625z" fill-rule="nonzero"/>
</symbol><symbol id="icon-v6-pencil" viewBox="0 0 18 18">
    <title>
        Pencil Icon
    </title>
    <path d="M16.015 6.356l-8.658 8.656a4.412 4.412 0 0 1-1.732.98l-2.641.66-1.184.3a.57.57 0 0 1-.752-.752l.299-1.183.66-2.641c.19-.645.525-1.238.98-1.733l8.658-8.656a3.09 3.09 0 0 1 5.259 1.34 3.093 3.093 0 0 1-.89 3.029zM4.39 12.047c-.2.24-.355.513-.458.808L3.53 14.47l1.613-.404c.294-.103.568-.258.808-.457l6.823-6.822-.035-.035-1.492-1.492-.036-.036-6.82 6.824zM14.61 3.391a1.107 1.107 0 0 0-1.562 0l-.43.43.035.036 1.492 1.492.035.035.43-.43a1.108 1.108 0 0 0 0-1.565v.002z" stroke-width=".5" fill-rule="evenodd"/>
</symbol><symbol id="icon-v6-plus-circle" viewBox="0 0 9 9">
    <title>
        Combined Shape
    </title>
    <path d="M4.5 9a4.5 4.5 0 1 1 0-9 4.5 4.5 0 0 1 0 9zM4 4V3h1v1h1v1H5v1H4V5H3V4h1zm.5 4a3.5 3.5 0 1 0 0-7 3.5 3.5 0 0 0 0 7z" fill-rule="nonzero"/>
</symbol><symbol id="icon-v6-plus" viewBox="0 0 11 11">
    <title>
        plus
    </title>
    <path d="M6.646 11a.229.229 0 0 0 .229-.23V6.876h3.896a.229.229 0 0 0 .229-.23v-2.29a.228.228 0 0 0-.23-.23H6.876V.229A.228.228 0 0 0 6.645 0h-2.29a.228.228 0 0 0-.23.23v3.895H.229a.228.228 0 0 0-.229.23v2.29c0 .128.102.23.23.23h3.895v3.896c0 .127.102.229.23.229h2.291z" fill-rule="evenodd"/>
</symbol><symbol id="icon-v6-presentation" viewBox="0 0 16 16">
    <title>
        Combined Shape
    </title>
    <path d="M0 8c0-4.4 3.6-8 8-8s8 3.6 8 8-3.6 8-8 8-8-3.6-8-8zm1.07 1h-.004l.019.105A6.95 6.95 0 0 0 8 15c3.203 0 5.867-2.092 6.716-5h.003l.014-.058c.046-.162.086-.327.12-.493l.003-.012.002-.01C14.95 8.967 15 8.49 15 8c0-3.9-3.1-7-7-7S1 4.1 1 8c0 .34.024.674.07 1zm0 0h3.056a.71.71 0 0 1-.021-.108 2.247 2.247 0 0 1-.09-.442A4.061 4.061 0 0 1 4 8c0-2.176 1.824-4 4-4s4 1.824 4 4c0 .239-.002.348-.014.492a2.449 2.449 0 0 1-.092.508h3.032l-.068.427a7.061 7.061 0 0 1-.005.022l-.12.493a6.99 6.99 0 0 1-.017.058H1.287s-.082-.3-.12-.474c-.026-.113-.061-.302-.082-.42A7.109 7.109 0 0 1 1.069 9zm9.786 0l.02-.058c.015-.047.024-.079.024-.042l.026-.158a1.41 1.41 0 0 0 .063-.334A4.61 4.61 0 0 0 11 8c0-1.624-1.376-3-3-3S5 6.376 5 8c0 .195.002.267.01.35.01.096.029.184.064.292L5.1 8.8c0-.037.009-.005.024.042.022.066.038.115.05.158h5.682z" fill-rule="nonzero"/>
</symbol><symbol id="icon-v6-profile" viewBox="0 0 16 18">
    <title>
        Profile
    </title>
    <path d="M13 6a5 5 0 1 0-8.25 3.8A7 7 0 0 0 1 16a1 1 0 0 0 2 0 5 5 0 0 1 10 0 1 1 0 0 0 2 0 7 7 0 0 0-3.75-6.2A4.989 4.989 0 0 0 13 6zM8 9a3 3 0 1 1 0-6 3 3 0 0 1 0 6z" stroke-width=".5" fill-rule="nonzero"/>
</symbol><symbol id="icon-v6-reload" viewBox="0 0 10 10">
    <title>
        Shape
    </title>
    <path d="M6.856 3.75c-.344 0-.427-.195-.177-.443l.962-.959A3.764 3.764 0 0 0 4.978 1.25a3.76 3.76 0 0 0-3.735 3.272S1.171 5 .627 5a.626.626 0 0 1-.611-.763A5.015 5.015 0 0 1 4.978 0C6.365 0 7.62.56 8.529 1.465L9.551.447C9.799.2 10 .282 10 .62v2.81a.32.32 0 0 1-.321.32H6.856zm-3.712 2.5c.344 0 .427.195.177.443l-.962.959A3.761 3.761 0 0 0 5.022 8.75a3.76 3.76 0 0 0 3.735-3.272S8.829 5 9.373 5a.626.626 0 0 1 .611.763A5.015 5.015 0 0 1 5.022 10a5.018 5.018 0 0 1-3.551-1.464L.449 9.553C.201 9.8 0 9.718 0 9.38V6.57a.32.32 0 0 1 .321-.32h2.823z" fill-rule="evenodd"/>
</symbol><symbol id="icon-v6-scale" viewBox="0 0 16 16">
    <title>
        Combined Shape
    </title>
    <path d="M15.5 16H12v-1h3v-3h1v4h-.5zM0 15.5v.5h4v-1H1v-3H0v3.5zm16-15V0h-4v1h3v3h1V.5zM.5 0H4v1H1v3H0V0h.5zM8 10a2 2 0 1 1 0-4 2 2 0 0 1 0 4z" fill-rule="evenodd"/>
</symbol><symbol id="icon-v6-search" viewBox="0 0 14 14">
    <title>
        search
    </title>
    <path d="M8.75 0a5.25 5.25 0 1 1 0 10.5 5.162 5.162 0 0 1-2.803-.81l-3.954 3.97a1.18 1.18 0 0 1-.826.34c-.308 0-.6-.113-.827-.34a1.174 1.174 0 0 1 0-1.653l3.97-3.954A5.162 5.162 0 0 1 3.5 5.25C3.5 2.35 5.85 0 8.75 0zm0 8.75c1.928 0 3.5-1.572 3.5-3.5s-1.572-3.5-3.5-3.5a3.506 3.506 0 0 0-3.5 3.5c0 1.928 1.572 3.5 3.5 3.5z" fill-rule="evenodd"/>
</symbol><symbol id="icon-v6-share" viewBox="0 0 10 10">
    <title>
        Shape
    </title>
    <path d="M1.25 8.752l7.5-.003c-.003 0 0-3.126 0-3.126a.625.625 0 1 1 1.25 0v3.13C10 9.436 9.438 10 8.75 10h-7.5C.56 10 0 9.443 0 8.752v-3.13a.625.625 0 1 1 1.25 0v3.13zm1.691-5.17a.62.62 0 0 1-.884 0 .64.64 0 0 1 0-.895l2.28-2.41a.926.926 0 0 1 1.325 0l2.28 2.41a.64.64 0 0 1 0 .896.62.62 0 0 1-.884 0L5.625 2.032v3.595a.626.626 0 1 1-1.25 0V2.031L2.941 3.583v-.001z" fill-rule="nonzero"/>
</symbol><symbol id="icon-v6-six-corners" viewBox="0 0 36 38">
    <title>
        Polygon 2
    </title>
    <path d="M15.325.873c1.477-.804 3.87-.805 5.35 0l12.65 6.88C34.802 8.558 36 10.57 36 12.248v13.506c0 1.678-1.195 3.688-2.675 4.493l-12.65 6.88c-1.477.805-3.87.806-5.35 0l-12.65-6.88C1.198 29.443 0 27.43 0 25.753V12.247C0 10.57 1.195 8.56 2.675 7.754l12.65-6.88z" fill-rule="evenodd"/>
</symbol><symbol id="icon-v6-stats" viewBox="0 0 18 15">
    <title>
        Pulse Icon
    </title>
    <path d="M2 10.002h2.5a1 1 0 0 0 .894-.552l.793-1.575 1.343 5.368a1 1 0 0 0 1.935.021l2.059-7.535 1.014 3.548a1 1 0 0 0 .962.725H16a1 1 0 1 0 0-2h-1.744l-1.794-6.276a1 1 0 0 0-1.927.012L8.544 9.05 7.47 4.757a1 1 0 0 0-1.864-.2L3.88 8.002H2a1 1 0 0 0 0 2z" stroke-width=".5" fill-rule="evenodd"/>
</symbol><symbol id="icon-v6-t" viewBox="0 0 14 14">
    <title>
        v6-t
    </title>
    <path d="M12 3V2H8v10h1a1 1 0 0 1 0 2H5a1 1 0 0 1 0-2h1V2H2v1a1 1 0 0 1-2 0V1a1 1 0 0 1 1-1h12a1 1 0 0 1 1 1v2a1 1 0 0 1-2 0z" fill-rule="nonzero"/>
</symbol><symbol id="icon-v6-themes" viewBox="0 0 32 32">
    <title>
        Group
    </title>
    <g transform="translate(1 1)" fill-rule="evenodd">
        <path stroke-width="2" d="M0 0h30v30H0z"/>
        <path stroke-width="2" d="M30 24v6H6l15-15z"/>
        <circle fill="currentColor" cx="11" cy="11" r="4"/>
    </g>
</symbol><symbol id="icon-v6-twitter-circle" viewBox="0 0 24 24">
    <title>
        v6-twitter-circle
    </title>
    
    <path d="M24 12c0 6.627-5.373 12-12 12S0 18.627 0 12 5.373 0 12 0s12 5.373 12 12zm-6.465-3.192a4.227 4.227 0 0 1-1.213.333c.436-.262.771-.676.929-1.169-.408.242-.86.418-1.341.513a2.112 2.112 0 0 0-3.599 1.926A5.995 5.995 0 0 1 7.96 8.205a2.11 2.11 0 0 0 .653 2.819 2.1 2.1 0 0 1-.955-.265l-.001.027c0 1.023.728 1.877 1.694 2.07a2.1 2.1 0 0 1-.953.037 2.112 2.112 0 0 0 1.972 1.466 4.233 4.233 0 0 1-3.126.874 5.982 5.982 0 0 0 3.237.949c3.883 0 6.007-3.217 6.007-6.008 0-.091-.002-.183-.006-.273.413-.298.771-.67 1.054-1.093z" fill-rule="nonzero"/>
</symbol><symbol id="icon-v6-twitter" viewBox="0 0 22 18">
    <title>
        final-shape
    </title>
    <path d="M2.505 10.952c.72.132 1.463.082 2.16-.145C2.556 10.471.944 8.63.944 6.41v-.103c.644.369 1.37.568 2.112.578A4.456 4.456 0 0 1 .943 3.086c0-.834.227-1.615.624-2.282 2.247 2.707 5.543 4.5 9.259 4.743a4.62 4.62 0 0 1-.104-.977c0-2.524 2.03-4.57 4.536-4.57 1.309 0 2.488.558 3.316 1.452A7.113 7.113 0 0 0 21.389.35a4.309 4.309 0 0 1-1.93 2.495A7.583 7.583 0 0 0 22 2.143a7.553 7.553 0 0 1-2.207 2.327v.1l-.001.52c0 7.13-5.737 12.91-12.813 12.91-2.574 0-4.971-.765-6.979-2.081a9.252 9.252 0 0 0 6.756-1.868 4.436 4.436 0 0 1-4.25-3.099h-.001z" fill-rule="evenodd"/>
</symbol><symbol id="icon-v6-ui-kits" viewBox="0 0 16 16">
    <title>
        ui-kits
    </title>
    <path d="M1 2.405v11.19l1.335-.467.33.944L0 15.005V.995l2.665.933-.33.944L1 2.405zm14 11.19V2.405l-1.335.467-.33-.944L16 .995v14.01l-2.665-.933.33-.944 1.335.467zM12 0v16H4V0h8zm-1 1H5v14h6V1z" fill-rule="nonzero"/>
</symbol><symbol id="icon-v6-wireframe-kits" viewBox="0 0 16 16">
    <title>
        wireframe-kits
    </title>
    <path d="M16 0v16H0V0h16zm-1 1H5v4h10V1zm0 5H5v9h10V6zM4 12H1v3h3v-3zm0-1V1H1v10h3z" fill-rule="evenodd"/>
</symbol><symbol id="icon-v6-lock" viewBox="0 0 24 32">
    <title>lock</title>
    <path fill="#50595b" style="fill: var(--color1, #50595b)" d="M16 10h-8v-2c0-2.2 1.8-4 4-4s4 1.8 4 4v2zM14 23.4v2.6h-4v-2.6c-1.2-0.6-2-2-2-3.4 0-2.2 1.8-4 4-4s4 1.8 4 4c0 1.4-0.8 2.8-2 3.4zM12 0c-4.4 0-8 3.6-8 8v2h-2c-1.2 0-2 0.8-2 2v18c0 1.2 0.8 2 2 2h20c1.2 0 2-0.8 2-2v-18c0-1.2-0.8-2-2-2h-2v-2c0-4.4-3.6-8-8-8z"></path>
</symbol>
<symbol id="icon-v6-stripe" viewBox="0 0 76 32">
    <title>stripe</title>
    <path fill="#50595b" style="fill: var(--color1, #50595b)" d="M76 16.512c0-5.46-2.618-9.77-7.62-9.77-5.026 0-8.066 4.308-8.066 9.728 0 6.42 3.59 9.664 8.74 9.664 2.512 0 4.412-0.576 5.848-1.388v-4.266c-1.436 0.726-3.082 1.174-5.172 1.174-2.048 0-3.864-0.726-4.096-3.244h10.324c0-0.276 0.042-1.386 0.042-1.898zM65.572 14.486c0-2.412 1.456-3.414 2.786-3.414 1.288 0 2.66 1.002 2.66 3.414h-5.446zM52.166 6.74c-2.070 0-3.4 0.982-4.14 1.666l-0.272-1.324h-4.646v24.878l5.28-1.132 0.020-6.036c0.76 0.554 1.88 1.344 3.736 1.344 3.78 0 7.22-3.072 7.22-9.836-0.020-6.186-3.504-9.556-7.2-9.556zM50.898 21.44c-1.244 0-1.984-0.448-2.49-1.002l-0.020-7.916c0.548-0.618 1.308-1.044 2.51-1.044 1.922 0 3.252 2.176 3.252 4.97 0 2.86-1.308 4.992-3.252 4.992zM35.846 5.482l5.3-1.152v-4.33l-5.3 1.13zM35.846 7.104h5.298v18.666h-5.298zM30.168 8.682l-0.338-1.578h-4.56v18.666h5.278v-12.65c1.246-1.642 3.356-1.344 4.010-1.11v-4.906c-0.674-0.256-3.144-0.726-4.39 1.58zM19.612 2.474l-5.15 1.11-0.022 17.088c0 3.158 2.344 5.482 5.468 5.482 1.73 0 2.998-0.32 3.694-0.704v-4.33c-0.676 0.278-4.010 1.26-4.010-1.9v-7.57h4.008v-4.546h-4.008l0.020-4.63zM5.34 12.522c0-0.832 0.676-1.152 1.796-1.152 1.604 0 3.63 0.492 5.236 1.366v-5.014c-1.513-0.62-3.268-0.981-5.108-0.981-0.045 0-0.090 0-0.135 0.001l0.007-0c-4.286-0.002-7.136 2.258-7.136 6.036 0 5.888 8.022 4.95 8.022 7.488 0 0.982-0.844 1.302-2.026 1.302-1.752 0-3.99-0.726-5.764-1.706v5.076c1.697 0.762 3.677 1.209 5.761 1.216h0.003c4.39 0 7.41-2.196 7.41-6.016-0.020-6.356-8.064-5.226-8.064-7.616z"></path>
</symbol>
<symbol id="icon-v6-paypal" viewBox="0 0 116 32">
    <title>paypal</title>
    <path fill="#50595b" style="fill: var(--color1, #50595b)" d="M34.868 17.346c-0.42 2.556-2.378 4.272-4.878 4.272-1.252 0-2.256-0.418-2.9-1.208-0.64-0.782-0.88-1.9-0.678-3.14 0.39-2.534 2.38-4.304 4.84-4.304 1.228 0 2.226 0.42 2.882 1.218 0.662 0.804 0.922 1.926 0.734 3.162zM40.888 8.642h-4.32c-0.379 0.005-0.692 0.286-0.744 0.652l-0 0.004-0.19 1.25-0.3-0.452c-0.936-1.406-3.022-1.876-5.104-1.876-4.774 0-8.852 3.744-9.646 8.996-0.412 2.62 0.174 5.124 1.61 6.872 1.318 1.606 3.2 2.274 5.44 2.274 3.848 0 5.982-2.56 5.982-2.56l-0.192 1.244c-0.072 0.474 0.28 0.9 0.742 0.9h3.892c0.631-0.009 1.15-0.479 1.237-1.087l0.001-0.007 2.336-15.312c0.007-0.039 0.011-0.084 0.011-0.13 0-0.42-0.336-0.761-0.754-0.77h-0.001zM99.222 17.346c0.19-1.236-0.070-2.358-0.732-3.162-0.656-0.798-1.654-1.218-2.88-1.218-2.462 0-4.454 1.77-4.842 4.304-0.202 1.24 0.038 2.358 0.678 3.14 0.644 0.79 1.648 1.208 2.9 1.208 2.5 0 4.46-1.716 4.876-4.272zM105.244 8.642c0.462 0 0.816 0.426 0.744 0.9l-2.336 15.31c-0.087 0.617-0.607 1.088-1.239 1.096h-3.891c-0.418-0.009-0.753-0.351-0.753-0.77 0-0.046 0.004-0.091 0.012-0.135l-0.001 0.005 0.192-1.244s-2.134 2.56-5.98 2.56c-2.244 0-4.124-0.67-5.442-2.276-1.436-1.748-2.022-4.252-1.61-6.872 0.794-5.252 4.872-8.996 9.646-8.996 2.080 0 4.166 0.47 5.102 1.876l0.302 0.452 0.19-1.25c0.052-0.37 0.365-0.651 0.744-0.656h4.32zM63.9 8.642c0.608 0 0.964 0.704 0.62 1.22l-14.444 21.58c-0.224 0.336-0.601 0.556-1.030 0.558h-4.34c-0.61 0-0.966-0.714-0.612-1.228l4.498-6.57-4.782-14.532c-0.168-0.504 0.196-1.030 0.712-1.030h4.268c0.571 0.007 1.050 0.393 1.198 0.917l0.002 0.009 2.54 8.778 5.99-9.134c0.223-0.344 0.604-0.568 1.038-0.57h4.342zM110.34 0.656c0.051-0.369 0.362-0.651 0.739-0.658h4.171c0.46 0 0.814 0.428 0.742 0.9l-3.652 23.954c-0.086 0.617-0.606 1.087-1.237 1.096h-3.725c-0.418-0.009-0.753-0.351-0.753-0.77 0-0.046 0.004-0.091 0.012-0.135l-0.001 0.005 3.702-24.39zM14.96 8.748c-0.492 3.354-2.966 3.354-5.36 3.354h-1.36l0.954-6.26c0.051-0.371 0.363-0.655 0.744-0.66h0.625c1.628 0 3.166 0 3.96 0.962 0.474 0.576 0.62 1.426 0.44 2.604zM13.92 0h-9.024c-0.633 0.008-1.153 0.479-1.239 1.089l-0.001 0.007-3.644 23.952c-0.072 0.472 0.28 0.9 0.742 0.9h4.306c0.633-0.008 1.153-0.479 1.239-1.089l0.001-0.007 0.984-6.46c0.086-0.617 0.605-1.088 1.237-1.098h2.855c5.944 0 9.374-2.978 10.27-8.88 0.404-2.58 0.018-4.608-1.15-6.028-1.284-1.56-3.56-2.386-6.576-2.386zM79.316 8.748c-0.492 3.354-2.966 3.354-5.36 3.354h-1.36l0.954-6.26c0.051-0.371 0.363-0.655 0.743-0.66h0.624c1.628 0 3.168 0 3.96 0.962 0.474 0.576 0.618 1.426 0.44 2.604zM78.274 0h-9.024c-0.632 0.009-1.151 0.48-1.237 1.089l-0.001 0.007-3.648 23.952c-0.072 0.472 0.28 0.9 0.742 0.9h4.63c0.432 0 0.8-0.326 0.866-0.768l1.036-6.79c0.087-0.616 0.606-1.087 1.237-1.096h2.855c5.944 0 9.374-2.978 10.27-8.88 0.404-2.58 0.016-4.608-1.15-6.028-1.282-1.56-3.556-2.386-6.574-2.386z"></path>
</symbol>
<symbol id="icon-v6-pinterest" viewBox="0 0 32 32">
    <title>pinterest</title>
    <path d="M16 0c-8.836 0-16 7.163-16 16 0 6.738 4.166 12.504 10.062 14.862l0.108 0.038c-0.14-1.266-0.268-3.208 0.054-4.59 0.292-1.25 1.876-7.954 1.876-7.954s-0.478-0.956-0.478-2.376c0-2.224 1.29-3.884 2.896-3.884 1.364 0 2.024 1.024 2.024 2.252 0 1.374-0.874 3.426-1.326 5.328-0.376 1.592 0.8 2.892 2.37 2.892 2.844 0 5.030-3 5.030-7.328 0-3.83-2.754-6.508-6.684-6.508-4.552 0-7.224 3.414-7.224 6.942 0 1.376 0.53 2.85 1.19 3.652 0.081 0.086 0.13 0.201 0.13 0.329 0 0.047-0.007 0.092-0.019 0.135l0.001-0.003c-0.122 0.504-0.392 1.592-0.444 1.814-0.070 0.292-0.232 0.354-0.536 0.214-2-0.93-3.248-3.852-3.248-6.2 0-5.046 3.668-9.68 10.572-9.68 5.55 0 9.864 3.954 9.864 9.24 0 5.514-3.478 9.952-8.302 9.952-1.622 0-3.146-0.842-3.668-1.838l-0.996 3.804c-0.362 1.39-1.338 3.132-1.99 4.194 1.413 0.453 3.039 0.714 4.726 0.714 8.837 0 16-7.163 16-16 0-8.832-7.157-15.993-15.988-16h-0.001z"></path>
</symbol>
<symbol id="icon-v6-facebook" viewBox="0 0 32 32">
    <title>facebook</title>
    <path d="M30.6 0h-29.2c-0.8 0-1.4 0.6-1.4 1.4v29.4c0 0.6 0.6 1.2 1.4 1.2h14.6v-10h-4v-6h4v-4c0-4.2 2.4-6 6-6h4v6h-2c-1.198 0-2 0.8-2 2v2h5.2l-1.2 6h-4v10h8.6c0.8 0 1.4-0.6 1.4-1.4v-29.2c0-0.8-0.6-1.4-1.4-1.4z"></path>
</symbol></svg>